# xmcd
#
# Track frame offsets: 
#        150
#        28540
#        52701
#        76083
#        100774
#        133542
#        159843
#        181908
#        202172
#        227678
#        249116
#        271164
#
# Disc length: 3808 seconds
#
# Revision: 0
# Processed by: cddbd v1.5.2PL0 Copyright (c) Steve Scherf et al.
# Submitted via: ExactAudioCopy v1.0b1
#
DISCID=840ede0c
DTITLE=Various Artist - Doc Tau Sao Nhi Bau
DYEAR=1997
DGENRE=Hoa Tau
TTITLE0=Tieng Sao Tren Nuong
TTITLE1=Uoc Vong
TTITLE2=Tinh Khuc Dem Trang
TTITLE3=Que Moi
TTITLE4=Ky Niem Que Huong
TTITLE5=Cung Dan Dat Nuoc
TTITLE6=Xuan Ve Ban Meo
TTITLE7=Nho Ve Que Huong
TTITLE8=Nhip Cau Que Huong
TTITLE9=Vu Khuc Tay Nguyen
TTITLE10=Que Huong Loi Ru
TTITLE11=Canh Chim Tu Do
EXTD=
EXTT0=
EXTT1=
EXTT2=
EXTT3=
EXTT4=
EXTT5=
EXTT6=
EXTT7=
EXTT8=
EXTT9=
EXTT10=
EXTT11=
PLAYORDER=
